<?xml version="1.0" encoding="UTF-8" standalone="no"?><!DOCTYPE svg PUBLIC "-//W3C//DTD SVG 1.1//EN" "http://www.w3.org/Graphics/SVG/1.1/DTD/svg11.dtd"><svg width="100%" height="100%" viewBox="0 0 515 409" version="1.1" xmlns="http://www.w3.org/2000/svg" xmlns:xlink="http://www.w3.org/1999/xlink" xml:space="preserve" xmlns:serif="http://www.serif.com/" style="fill-rule:evenodd;clip-rule:evenodd;stroke-linejoin:round;stroke-miterlimit:2;"><g><g><path d="M144.796,408.445c0,0 -198.719,-211.604 -130.56,-357.57c0,0 21.423,-113.244 273.796,7.071c0,0 -169.42,-32.461 -203.086,-7.071c-33.665,25.39 -35.355,84.852 -35.355,84.852c0,0 4.171,149.792 95.205,272.718Z" style="fill:#58c8df;"/><path d="M256.59,29.661c0,0 85.892,-3.414 102.358,53.032c0,0 33.15,77.527 47.865,135.353c0,0 -6.831,-165.856 -49.633,-204.295c-42.801,-38.439 -100.59,15.91 -100.59,15.91Z" style="fill:#58c8df;"/></g><path d="M369.224,330.441c-8.559,0 -16.07,-1.572 -22.533,-4.716c-6.463,-3.144 -11.485,-7.773 -15.066,-13.887c-3.581,-6.114 -5.371,-13.581 -5.371,-22.402c0,-7.86 1.135,-15.066 3.406,-21.616c2.271,-6.55 5.611,-12.249 10.022,-17.096c4.411,-4.847 9.76,-8.603 16.048,-11.267c6.288,-2.664 13.494,-3.996 21.616,-3.996c5.24,0 10.175,0.611 14.804,1.834c4.629,1.223 8.69,2.969 12.184,5.24c1.747,1.135 2.882,2.489 3.406,4.061c0.524,1.572 0.59,3.122 0.197,4.651c-0.393,1.528 -1.114,2.838 -2.162,3.93c-1.048,1.092 -2.314,1.769 -3.799,2.031c-1.485,0.262 -3.101,-0.175 -4.847,-1.31c-2.969,-2.009 -6.201,-3.472 -9.695,-4.389c-3.494,-0.917 -7.162,-1.376 -11.005,-1.376c-6.9,0 -12.773,1.681 -17.62,5.044c-4.847,3.363 -8.559,7.948 -11.136,13.756c-2.576,5.808 -3.865,12.424 -3.865,19.848c0,9.258 2.402,16.114 7.205,20.568c4.804,4.454 11.66,6.681 20.568,6.681c3.494,0 6.856,-0.328 10.088,-0.983c3.232,-0.655 6.376,-1.507 9.433,-2.555l-4.323,7.074l4.585,-27.905l-14.28,0c-2.183,0 -3.908,-0.48 -5.175,-1.441c-1.266,-0.961 -1.9,-2.271 -1.9,-3.93c0,-2.271 0.699,-4.018 2.096,-5.24c1.397,-1.223 3.319,-1.834 5.764,-1.834l21.354,0c2.533,0 4.411,0.699 5.633,2.096c1.223,1.397 1.616,3.363 1.179,5.895l-4.978,31.442c-0.349,2.009 -1.004,3.646 -1.965,4.913c-0.961,1.266 -2.402,2.249 -4.323,2.948c-3.581,1.223 -7.642,2.183 -12.184,2.882c-4.542,0.699 -8.996,1.048 -13.363,1.048Z" style="fill:#58c8df;fill-rule:nonzero;"/><path d="M463.348,329.282c-2.115,0 -3.815,-0.59 -5.099,-1.769c-1.284,-1.18 -2.229,-2.908 -2.833,-5.186l-18.697,-70.407c-0.453,-1.952 -0.472,-3.64 -0.057,-5.064c0.415,-1.424 1.19,-2.542 2.323,-3.356c1.133,-0.813 2.493,-1.22 4.079,-1.22c1.813,0 3.324,0.488 4.533,1.464c1.209,0.976 2.115,2.766 2.72,5.369l16.431,65.282l-4.873,0l36.487,-66.624c1.058,-1.952 2.191,-3.356 3.399,-4.21c1.209,-0.854 2.757,-1.281 4.646,-1.281c1.964,0 3.494,0.488 4.589,1.464c1.095,0.976 1.719,2.237 1.87,3.783c0.151,1.546 -0.264,3.173 -1.246,4.881l-39.887,71.261c-1.058,1.952 -2.229,3.376 -3.513,4.271c-1.284,0.895 -2.908,1.342 -4.873,1.342Z" style="fill:#58c8df;fill-rule:nonzero;"/><g><path d="M143.884,329.375c-3.019,0 -5.284,-0.866 -6.794,-2.598c-1.51,-1.732 -1.998,-4.107 -1.465,-7.127l11.989,-75.931c0.444,-2.753 1.488,-4.818 3.13,-6.194c1.643,-1.377 3.841,-2.065 6.594,-2.065l21.714,0c14.92,0 26.443,3.508 34.569,10.524c8.126,7.016 12.189,16.874 12.189,29.573c0,7.549 -1.11,14.587 -3.33,21.114c-2.22,6.527 -5.573,12.233 -10.058,17.118c-4.485,4.884 -10.08,8.703 -16.785,11.456c-6.705,2.753 -14.587,4.13 -23.645,4.13l-28.108,0Zm9.458,-14.12l18.916,0c6.217,0 11.589,-0.999 16.119,-2.997c4.529,-1.998 8.237,-4.773 11.123,-8.326c2.886,-3.552 5.018,-7.726 6.394,-12.522c1.377,-4.796 2.065,-9.991 2.065,-15.586c0,-8.526 -2.42,-15.031 -7.26,-19.516c-4.84,-4.485 -12.056,-6.727 -21.647,-6.727l-15.319,0l-10.391,65.674Z" style="fill:#58c8df;fill-rule:nonzero;"/><path d="M235.534,330.441c-2.664,0 -4.596,-0.821 -5.795,-2.464c-1.199,-1.643 -1.576,-3.974 -1.132,-6.994l7.86,-49.821c0.444,-2.664 1.465,-4.662 3.064,-5.995c1.599,-1.332 3.686,-1.998 6.261,-1.998c2.575,0 4.463,0.799 5.662,2.398c1.199,1.599 1.576,3.908 1.132,6.927l-1.199,7.46l-1.332,0c1.776,-5.24 4.707,-9.303 8.792,-12.189c4.085,-2.886 8.925,-4.507 14.52,-4.862c2.487,-0.178 4.152,0.178 4.995,1.066c0.844,0.888 1.266,2.353 1.266,4.396c0,2.931 -0.666,5.084 -1.998,6.461c-1.332,1.377 -3.419,2.198 -6.261,2.464l-3.863,0.4c-5.95,0.622 -10.213,2.42 -12.788,5.395c-2.575,2.975 -4.307,7.127 -5.195,12.455l-4.263,26.909c-0.355,2.664 -1.354,4.662 -2.997,5.995c-1.643,1.332 -3.885,1.998 -6.727,1.998Z" style="fill:#58c8df;fill-rule:nonzero;"/><path d="M279.361,330.041c-3.019,0 -5.439,-0.932 -7.26,-2.797c-1.821,-1.865 -2.731,-4.263 -2.731,-7.193c0,-2.842 0.91,-5.173 2.731,-6.994c1.821,-1.821 4.241,-2.731 7.26,-2.731c3.108,0 5.528,0.91 7.26,2.731c1.732,1.821 2.598,4.152 2.598,6.994c0,2.931 -0.866,5.328 -2.598,7.193c-1.732,1.865 -4.152,2.797 -7.26,2.797Z" style="fill:#58c8df;fill-rule:nonzero;"/><path d="M425.643,330.006c-3.284,0 -5.916,-1.014 -7.896,-3.043c-1.98,-2.028 -2.97,-4.636 -2.97,-7.824c0,-3.091 0.99,-5.626 2.97,-7.606c1.98,-1.98 4.612,-2.97 7.896,-2.97c3.381,0 6.013,0.99 7.896,2.97c1.883,1.98 2.825,4.516 2.825,7.606c0,3.187 -0.942,5.795 -2.825,7.824c-1.883,2.028 -4.516,3.043 -7.896,3.043Z" style="fill:#58c8df;fill-rule:nonzero;"/><path d="M503.759,330.006c-3.284,0 -5.916,-1.014 -7.896,-3.043c-1.98,-2.028 -2.97,-4.636 -2.97,-7.824c0,-3.091 0.99,-5.626 2.97,-7.606c1.98,-1.98 4.612,-2.97 7.896,-2.97c3.381,0 6.013,0.99 7.896,2.97c1.883,1.98 2.825,4.516 2.825,7.606c0,3.187 -0.942,5.795 -2.825,7.824c-1.883,2.028 -4.516,3.043 -7.896,3.043Z" style="fill:#58c8df;fill-rule:nonzero;"/></g></g></svg>